<?xml version="1.0" encoding="UTF-8"?>
<svg xmlns="http://www.w3.org/2000/svg" xmlns:xlink="http://www.w3.org/1999/xlink" width="612pt" height="792pt" viewBox="0 0 612 792" version="1.1">
<g id="surface1">
<path style=" stroke:none;fill-rule:evenodd;fill:rgb(0%,0%,0%);fill-opacity:1;" d="M 368.394531 176.609375 C 348.824219 190.199219 329.945313 196.53125 309.003906 196.53125 C 288.058594 196.53125 269.183594 190.199219 249.605469 176.609375 L 244.503906 173.066406 L 239.332031 176.496094 C 217.203125 191.148438 199.226563 193.828125 171.789063 193.828125 C 162.332031 193.828125 152.164063 192.042969 142.382813 188.667969 L 135.871094 186.417969 L 131.90625 192.054688 C 129.796875 195.050781 128.230469 196.957031 126.71875 198.796875 C 124.851563 201.066406 123.089844 203.210938 121.023438 206.539063 L 117.707031 211.863281 L 121.476563 216.878906 C 138.246094 239.15625 144.570313 262.078125 144.570313 283.65625 C 144.570313 323.890625 122.570313 359.445313 105.246094 377.425781 L 99 383.90625 L 105.371094 390.257813 C 108.785156 393.667969 114.871094 399.980469 119.902344 405.269531 C 119.886719 405.476563 119.699219 408.042969 119.699219 408.042969 L 119.65625 408.546875 C 119.445313 412.457031 119.34375 416.304688 119.34375 420.09375 C 119.34375 460.957031 131.421875 494.925781 155.320313 521.203125 C 182.996094 551.628906 226.265625 569.789063 277.402344 572.617188 C 290.101563 584.179688 303.003906 593.78125 303.582031 594.207031 L 309.046875 598.265625 L 314.507813 594.195313 C 315.082031 593.765625 327.917969 584.175781 340.601563 572.617188 C 391.738281 569.789063 435.007813 551.628906 462.679688 521.203125 C 486.582031 494.925781 498.660156 460.957031 498.660156 420.097656 C 498.660156 416.304688 498.554688 412.460938 498.347656 408.546875 L 498.339844 408.457031 L 498.292969 407.957031 C 498.292969 407.957031 498.117188 405.472656 498.101563 405.269531 C 502.757813 400.375 509.042969 393.84375 512.628906 390.257813 L 519 383.902344 L 512.757813 377.425781 C 495.433594 359.445313 473.429688 323.886719 473.429688 283.652344 C 473.429688 262.078125 479.757813 239.15625 496.523438 216.878906 L 500.292969 211.867188 L 496.984375 206.539063 C 494.914063 203.210938 493.148438 201.066406 491.285156 198.796875 C 489.769531 196.957031 488.207031 195.050781 486.097656 192.054688 L 482.132813 186.414063 L 475.621094 188.667969 C 465.839844 192.042969 455.671875 193.828125 446.214844 193.828125 C 418.777344 193.828125 400.800781 191.148438 378.671875 176.496094 L 373.496094 173.066406 Z M 368.394531 176.609375 "/>
<path style=" stroke:none;fill-rule:evenodd;fill:rgb(85.630798%,69.07959%,2.159119%);fill-opacity:1;" d="M 309.035156 586.855469 C 309.035156 586.855469 294.421875 576.015625 281.214844 563.675781 C 194.820313 560.09375 123.335938 511.652344 128.796875 409.035156 C 129.121094 406.328125 128.847656 406.511719 129.316406 401.890625 C 124.359375 396.648438 116.164063 388.101563 111.835938 383.777344 C 142.828125 351.625 178.984375 278.070313 128.796875 211.371094 C 132.09375 206.066406 134.484375 204.308594 139.394531 197.320313 C 149.425781 200.785156 160.585938 202.984375 171.792969 202.984375 C 200.570313 202.984375 220.226563 200.128906 244.386719 184.128906 C 263.484375 197.390625 284.199219 205.683594 309.003906 205.683594 C 333.808594 205.683594 354.515625 197.390625 373.617188 184.128906 C 397.773438 200.128906 417.429688 202.984375 446.214844 202.984375 C 457.417969 202.984375 468.574219 200.785156 478.605469 197.320313 C 483.515625 204.304688 485.90625 206.066406 489.207031 211.371094 C 439.015625 278.070313 475.179688 351.625 506.167969 383.777344 C 501.839844 388.097656 493.640625 396.648438 488.6875 401.890625 C 489.152344 406.511719 488.882813 406.328125 489.203125 409.035156 C 494.667969 511.648438 423.175781 560.09375 336.789063 563.675781 C 323.582031 576.015625 309.035156 586.855469 309.035156 586.855469 "/>
<path style=" stroke:none;fill-rule:evenodd;fill:rgb(0%,0%,0%);fill-opacity:1;" d="M 145.183594 402.914063 L 143.96875 402.914063 L 143.445313 407.328125 L 143.070313 410.171875 C 141.054688 449.699219 150.910156 481.632813 172.359375 505.15625 C 196.957031 532.140625 236.8125 547.511719 287.613281 549.617188 C 287.664063 549.617188 288.464844 549.625 288.464844 549.625 C 303.707031 549.707031 318.105469 549.785156 330.351563 549.617188 C 381.191406 547.511719 421.042969 532.140625 445.640625 505.15625 C 467.089844 481.632813 476.945313 449.699219 474.933594 410.242188 C 474.929688 410.171875 474.554688 407.316406 474.554688 407.316406 L 474.039063 402.964844 L 472.8125 402.914063 Z M 145.183594 402.914063 "/>
<path style=" stroke:none;fill-rule:evenodd;fill:rgb(0%,0%,0%);fill-opacity:1;" d="M 373.019531 372.597656 C 375.589844 370.777344 377.09375 367.917969 377.09375 364.574219 C 377.09375 357.421875 372.003906 353.152344 363.480469 353.152344 L 343.992188 353.152344 L 343.992188 395.574219 L 363.300781 395.574219 C 372.828125 395.574219 378.515625 390.398438 378.515625 381.722656 C 378.515625 377.660156 376.492188 374.40625 373.019531 372.597656 M 353.003906 361.695313 C 353.816406 361.695313 363.121094 361.695313 363.121094 361.695313 C 367.25 361.695313 367.78125 363.582031 367.78125 365.226563 C 367.78125 367.5625 366.394531 368.699219 363.539063 368.699219 C 363.539063 368.699219 353.820313 368.699219 353.003906 368.699219 Z M 287.199219 374.363281 C 287.199219 387.648438 294.5 396.230469 305.800781 396.230469 C 313.164063 396.226563 318.46875 392.992188 321.566406 386.605469 L 321.742188 386.238281 L 314.011719 381.648438 L 313.785156 382.03125 C 311.582031 385.722656 309.480469 387.09375 306.035156 387.09375 C 300.410156 387.09375 296.628906 381.976563 296.628906 374.363281 C 296.628906 366.511719 300.210938 361.632813 305.976563 361.632813 C 309.328125 361.632813 311.683594 363.03125 313.175781 365.90625 L 313.375 366.28125 L 321.882813 362.355469 L 321.6875 361.949219 C 318.699219 355.769531 313.304688 352.5 306.09375 352.5 C 294.96875 352.5 287.199219 361.492188 287.199219 374.363281 M 269.65625 353.152344 L 239.484375 353.152344 L 239.484375 395.574219 L 248.675781 395.574219 L 248.675781 378.074219 C 249.5 378.074219 261.195313 378.074219 261.195313 378.074219 L 261.195313 369.113281 L 248.675781 369.113281 L 248.675781 362.167969 C 249.527344 362.167969 270.097656 362.167969 270.097656 362.167969 L 270.097656 353.152344 Z M 363.597656 386.796875 C 363.597656 386.796875 353.820313 386.796875 353.003906 386.796875 L 353.003906 376.945313 L 363.597656 376.945313 C 367.339844 376.945313 369.085938 378.5 369.085938 381.839844 C 369.085938 385.082031 367.191406 386.796875 363.597656 386.796875 Z M 363.597656 386.796875 "/>
<path style=" stroke:none;fill-rule:evenodd;fill:rgb(0%,0%,0%);fill-opacity:1;" d="M 373.144531 201.496094 C 352.589844 213.929688 331.609375 219.980469 308.996094 220 C 286.390625 219.980469 265.410156 213.929688 244.855469 201.496094 L 244.171875 201.082031 L 243.472656 201.476563 C 220.058594 214.707031 199.457031 217.296875 171.785156 217.296875 C 165.136719 217.292969 158.277344 216.628906 151.394531 215.308594 L 148.429688 214.742188 L 149.953125 217.347656 C 178.378906 265.996094 168.289063 313.03125 154.816406 343.921875 L 153.976563 345.84375 L 464.023438 345.84375 L 463.183594 343.921875 C 449.714844 313.03125 439.621094 265.996094 468.042969 217.347656 L 469.570313 214.742188 L 466.601563 215.308594 C 459.722656 216.628906 452.859375 217.296875 446.214844 217.296875 C 418.539063 217.292969 397.941406 214.707031 374.527344 201.476563 L 373.832031 201.082031 Z M 373.144531 201.496094 "/>
<path style=" stroke:none;fill-rule:evenodd;fill:rgb(100%,100%,100%);fill-opacity:1;" d="M 307.628906 222.714844 C 291.210938 222.53125 275.628906 219.199219 260.445313 212.625 C 254.957031 210.246094 249.523438 207.460938 244.117188 204.230469 C 233.785156 209.988281 223.988281 213.734375 213.90625 216.125 C 213.90625 218.566406 175.363281 220.039063 171.785156 220.039063 C 165.859375 220.039063 159.761719 219.425781 153.640625 218.402344 C 160.902344 231.390625 165.523438 244.242188 168.144531 256.699219 C 170.058594 265.8125 170.910156 274.714844 170.910156 283.292969 C 170.910156 290.167969 170.371094 296.832031 169.441406 303.242188 C 169.441406 311.988281 161.777344 334.453125 158.125 343.097656 L 307.628906 343.097656 Z M 307.628906 222.714844 "/>
<path style=" stroke:none;fill-rule:evenodd;fill:rgb(99.362183%,87.565613%,6.951904%);fill-opacity:1;" d="M 310.371094 222.714844 C 326.789063 222.53125 342.371094 219.199219 357.554688 212.625 C 363.042969 210.246094 368.476563 207.460938 373.882813 204.230469 C 384.214844 209.988281 394.011719 213.734375 404.09375 216.125 C 404.09375 218.566406 442.636719 220.039063 446.214844 220.039063 C 452.140625 220.039063 458.238281 219.425781 464.359375 218.402344 C 457.097656 231.390625 452.476563 244.242188 449.855469 256.699219 C 447.941406 265.8125 447.089844 274.714844 447.089844 283.292969 C 447.089844 290.167969 447.628906 296.832031 448.558594 303.242188 C 448.558594 311.988281 456.222656 334.453125 459.878906 343.097656 L 310.371094 343.097656 Z M 310.371094 222.714844 "/>
<path style=" stroke:none;fill-rule:evenodd;fill:rgb(88.68103%,15.327454%,22.496033%);fill-opacity:1;" d="M 260.445313 256.699219 L 260.445313 212.625 C 254.957031 210.246094 249.523438 207.460938 244.117188 204.230469 C 233.785156 209.988281 223.988281 213.734375 213.90625 216.125 L 213.90625 256.699219 L 168.144531 256.699219 C 170.058594 265.8125 170.910156 274.714844 170.910156 283.292969 C 170.910156 290.167969 170.371094 296.832031 169.445313 303.242188 C 186.394531 303.242188 213.222656 303.242188 213.90625 303.242188 L 213.90625 343.097656 L 260.445313 343.097656 L 260.445313 303.242188 C 260.910156 303.242188 283.460938 303.242188 307.628906 303.242188 L 307.628906 256.699219 Z M 260.445313 256.699219 "/>
<path style=" stroke:none;fill-rule:evenodd;fill:rgb(88.68103%,15.327454%,22.496033%);fill-opacity:1;" d="M 390.175781 211.84375 L 390.175781 343.097656 L 406.535156 343.097656 L 406.535156 216.65625 C 401.027344 215.472656 395.613281 213.90625 390.175781 211.84375 Z M 357.453125 212.664063 L 357.453125 343.097656 L 373.816406 343.097656 L 373.816406 204.265625 C 368.402344 207.5 362.953125 210.289063 357.453125 212.667969 Z M 324.734375 221.707031 L 324.734375 343.097656 L 341.09375 343.097656 L 341.09375 218.425781 C 335.714844 219.90625 330.265625 220.996094 324.734375 221.707031 M 422.898438 219.117188 L 422.898438 343.097656 L 439.253906 343.097656 L 439.253906 219.96875 C 433.554688 219.859375 428.128906 219.601563 422.898438 219.117188 Z M 422.898438 219.117188 "/>
<path style=" stroke:none;fill-rule:evenodd;fill:rgb(12.208557%,30.961609%,63.687134%);fill-opacity:1;" d="M 146.402344 405.65625 C 146.289063 406.640625 146.15625 407.753906 146.15625 407.753906 C 146.15625 407.75 145.8125 410.382813 145.804688 410.382813 C 145.640625 413.679688 145.554688 416.921875 145.554688 420.105469 C 145.554688 454.34375 155.230469 482.296875 174.386719 503.308594 C 178.964844 508.328125 184.089844 512.933594 189.726563 517.125 C 202.929688 526.9375 218.960938 534.429688 237.4375 539.476563 C 251.898438 543.429688 267.863281 545.875 285.148438 546.75 C 285.988281 546.792969 286.828125 546.839844 287.675781 546.875 L 288.480469 546.878906 C 303.707031 546.960938 318.09375 547.039063 330.277344 546.875 C 331.140625 546.839844 331.996094 546.792969 332.855469 546.75 C 350.140625 545.871094 366.105469 543.421875 380.566406 539.472656 C 399.042969 534.425781 415.074219 526.933594 428.273438 517.125 C 433.914063 512.933594 439.035156 508.332031 443.613281 503.308594 C 462.773438 482.296875 472.449219 454.335938 472.449219 420.140625 C 472.449219 416.964844 472.367188 413.738281 472.199219 410.457031 L 471.84375 407.734375 C 471.84375 407.734375 471.710938 406.636719 471.597656 405.65625 Z M 146.402344 405.65625 "/>
<path style=" stroke:none;fill-rule:evenodd;fill:rgb(63.09967%,7.983398%,27.11792%);fill-opacity:1;" d="M 285.148438 546.746094 C 285.988281 546.792969 286.828125 546.839844 287.675781 546.875 L 288.480469 546.878906 C 303.707031 546.960938 318.09375 547.039063 330.277344 546.875 C 331.140625 546.839844 331.996094 546.792969 332.855469 546.746094 L 332.855469 405.65625 L 285.148438 405.65625 Z M 237.4375 405.65625 L 189.726563 405.65625 L 189.726563 517.125 C 202.929688 526.9375 218.960938 534.429688 237.4375 539.476563 Z M 380.566406 405.65625 L 380.566406 539.476563 C 399.042969 534.425781 415.078125 526.9375 428.273438 517.125 L 428.273438 405.65625 Z M 380.566406 405.65625 "/>
<path style=" stroke:none;fill-rule:evenodd;fill:rgb(0%,0%,0%);fill-opacity:1;" d="M 308.960938 520.046875 C 334.148438 520.046875 354.695313 499.503906 354.695313 474.316406 C 354.695313 449.125 334.148438 428.582031 308.960938 428.582031 C 283.773438 428.582031 263.230469 449.125 263.230469 474.316406 C 263.230469 499.503906 283.773438 520.046875 308.960938 520.046875 "/>
<path style=" stroke:none;fill-rule:evenodd;fill:rgb(85.630798%,69.07959%,2.159119%);fill-opacity:1;" d="M 285.660156 482.613281 C 282.828125 487.691406 277.605469 490.644531 271.214844 490.644531 C 270.457031 490.644531 269.707031 490.59375 268.972656 490.496094 C 266.949219 485.5 265.839844 480.039063 265.839844 474.316406 C 265.839844 460.792969 272.054688 448.726563 281.78125 440.816406 C 280.980469 443.984375 280.203125 446.757813 279.585938 449.589844 C 277.363281 459.761719 277.386719 475.078125 285.660156 482.613281 M 307.683594 474.953125 L 307.683594 474.957031 C 307.140625 480.019531 300.402344 484.980469 295.734375 484.386719 C 285.726563 483.105469 281.003906 473.8125 280.84375 462.40625 C 280.722656 453.941406 283.121094 446.539063 285.007813 438.433594 C 290.886719 434.492188 297.785156 431.960938 305.226563 431.316406 C 300.246094 436.753906 301.277344 444.710938 306.414063 448.8125 C 305.207031 449.703125 304.121094 450.863281 303.191406 452.339844 C 299.386719 458.367188 298.84375 468.511719 307.683594 474.953125 M 308.890625 447.417969 C 303.492188 444.058594 302.5625 435.625 309.375 431.152344 C 332.164063 431.347656 350.746094 449.203125 352.085938 471.707031 C 348.011719 463.910156 340.578125 456.492188 333.460938 452.511719 C 325.921875 448.304688 316.027344 444.457031 308.890625 447.417969 M 351.980469 478.285156 C 351.5625 482.925781 350.402344 487.351563 348.628906 491.453125 C 345.695313 482.308594 336.171875 480.980469 330.3125 483.039063 C 330.25 481.453125 329.878906 479.785156 329.144531 478.027344 C 326.851563 472.546875 318.925781 465.875 308.996094 472.734375 C 301.695313 467.242188 302.140625 458.816406 305.363281 453.714844 C 310.378906 445.765625 321.78125 448.933594 332.210938 454.757813 C 340.664063 459.480469 349.519531 469.355469 351.980469 478.285156 M 330.097656 485.914063 L 330.097656 485.917969 C 335.390625 483.261719 345.511719 484.511719 346.800781 495.164063 C 339.449219 508.464844 325.277344 517.476563 309 517.476563 C 300.082031 517.476563 291.792969 514.769531 284.914063 510.136719 C 294.03125 509.714844 306.144531 507.398438 313.65625 502.917969 C 320.945313 498.570313 328.683594 493.148438 330.097656 485.914063 M 281.566406 507.632813 C 290.570313 507.707031 304.40625 505.441406 312.34375 500.710938 C 322.59375 494.59375 330.558594 488.066406 326.773438 479.015625 C 324.859375 474.441406 318.503906 469.152344 310.257813 474.988281 C 309.730469 481.742188 301.394531 487.703125 295.40625 486.9375 C 292.371094 486.542969 289.828125 485.589844 287.710938 484.203125 C 284.347656 489.949219 278.324219 493.214844 271.214844 493.214844 C 270.867188 493.214844 270.515625 493.207031 270.171875 493.183594 C 272.898438 498.789063 276.804688 503.710938 281.566406 507.636719 Z M 281.566406 507.632813 "/>
</g>
</svg>
