<?xml version="1.0" encoding="UTF-8"?>
<svg xmlns="http://www.w3.org/2000/svg" xmlns:xlink="http://www.w3.org/1999/xlink" width="2228.7pt" height="424.45pt" viewBox="0 0 2228.7 424.45" version="1.1">
<defs>
<clipPath id="clip1">
  <path d="M 0 0 L 2228.699219 0 L 2228.699219 424.449219 L 0 424.449219 Z M 0 0 "/>
</clipPath>
</defs>
<g id="surface1">
<g clip-path="url(#clip1)" clip-rule="nonzero">
<path style=" stroke:none;fill-rule:evenodd;fill:rgb(0%,0%,0%);fill-opacity:1;" d="M 2131.671875 0.804688 C 2164.179688 0.960938 2196.25 18.558594 2213.75 46.398438 C 2223.339844 61.664063 2228.519531 79.667969 2228.609375 97.742188 C 2228.730469 174.0625 2228.730469 250.386719 2228.609375 326.707031 C 2228.449219 359.75 2210.351563 392.0625 2182.019531 409.402344 C 2166.941406 418.628906 2149.269531 423.558594 2131.671875 423.644531 C 1453.460938 424.71875 775.242188 424.71875 97.027344 423.644531 C 64.511719 423.488281 32.453125 405.890625 14.949219 378.050781 C 5.351563 362.785156 0.175781 344.78125 0.0898438 326.707031 C -0.03125 250.386719 -0.03125 174.0625 0.0898438 97.742188 C 0.25 64.699219 18.347656 32.382813 46.679688 15.046875 C 61.757813 5.816406 79.421875 0.886719 97.027344 0.804688 C 775.242188 -0.269531 1453.460938 -0.269531 2131.671875 0.804688 "/>
</g>
<path style=" stroke:none;fill-rule:evenodd;fill:rgb(100%,100%,100%);fill-opacity:1;" d="M 932.882813 21.863281 C 1332.539063 21.242188 1732.191406 20.902344 2131.839844 22.804688 C 2146.261719 22.921875 2160.621094 27.230469 2172.640625 35.148438 C 2193.371094 48.796875 2206.421875 72.960938 2206.601563 97.5625 C 2206.960938 174.003906 2206.960938 250.445313 2206.601563 326.886719 C 2206.539063 335.210938 2205.121094 343.527344 2202.351563 351.382813 C 2192 380.757813 2162.660156 401.398438 2131.839844 401.640625 C 1732.191406 403.5625 1332.539063 404.351563 932.882813 403.980469 L 932.882813 21.863281 "/>
<path style=" stroke:none;fill-rule:evenodd;fill:rgb(19.604492%,46.655273%,68.164063%);fill-opacity:1;" d="M 932.882813 21.863281 L 932.882813 403.980469 C 654.207031 403.773438 375.527344 402.980469 96.855469 401.640625 C 82.972656 401.53125 69.414063 397.617188 57.777344 390.402344 C 36.125 376.96875 22.292969 352.191406 22.09375 326.878906 C 21.730469 250.523438 21.96875 174.167969 22.089844 97.8125 C 22.15625 83.765625 26.109375 70.058594 33.453125 58.300781 C 46.960938 36.671875 71.894531 22.84375 97.359375 22.804688 C 375.867188 22.804688 654.378906 22.261719 932.882813 21.863281 "/>
<path style=" stroke:none;fill-rule:evenodd;fill:rgb(100%,100%,100%);fill-opacity:1;" d="M 85.179688 95.238281 L 126.058594 95.238281 L 126.058594 191.726563 L 205.941406 95.238281 L 264.332031 95.238281 L 166.894531 212.929688 L 264.332031 330.621094 L 205.941406 330.621094 L 126.058594 234.132813 L 126.058594 330.621094 L 85.179688 330.621094 L 85.179688 95.238281 "/>
<path style=" stroke:none;fill-rule:evenodd;fill:rgb(100%,100%,100%);fill-opacity:1;" d="M 407.574219 262.304688 L 407.574219 95.238281 L 448.457031 95.238281 L 448.457031 296.863281 C 448.457031 311.308594 442.53125 330.621094 416.210938 330.621094 C 389.886719 330.621094 384.570313 313.960938 384.570313 313.960938 L 322.765625 163.242188 L 322.765625 330.621094 L 281.886719 330.621094 L 281.886719 128.996094 C 281.886719 114.550781 287.8125 95.238281 314.132813 95.238281 C 340.453125 95.238281 345.769531 111.902344 345.769531 111.902344 L 407.574219 262.617188 "/>
<path style=" stroke:none;fill-rule:evenodd;fill:rgb(100%,100%,100%);fill-opacity:1;" d="M 602.695313 302.726563 C 602.695313 302.726563 595.546875 330.621094 573.277344 330.621094 C 551.011719 330.621094 543.863281 302.726563 543.863281 302.726563 L 469.914063 95.238281 L 510.796875 95.238281 L 573.277344 270.558594 L 635.765625 95.238281 L 676.644531 95.238281 L 602.695313 302.726563 "/>
<path style=" stroke:none;fill-rule:evenodd;fill:rgb(100%,100%,100%);fill-opacity:1;" d="M 705.355469 95.238281 L 816.21875 95.238281 C 816.21875 95.238281 869.605469 92.378906 869.605469 162.417969 C 869.605469 200.554688 853.871094 212.570313 853.398438 212.921875 C 853.871094 213.273438 869.605469 225.289063 869.605469 263.425781 C 869.605469 333.410156 816.304688 330.609375 816.21875 330.605469 L 698.527344 330.605469 L 698.527344 95.238281 Z M 816.21875 289.726563 C 816.261719 289.722656 827.753906 289.027344 827.753906 263.425781 C 827.753906 233.46875 816.21875 233.355469 816.21875 233.355469 L 739.40625 233.355469 L 739.40625 289.726563 Z M 853.398438 212.921875 L 853.390625 212.914063 L 853.390625 212.929688 Z M 816.21875 192.488281 C 816.21875 192.488281 827.753906 192.378906 827.753906 162.417969 C 827.753906 136.769531 816.21875 136.117188 816.21875 136.117188 L 739.40625 136.117188 L 739.40625 192.488281 L 816.21875 192.488281 "/>
<path style=" stroke:none;fill-rule:evenodd;fill:rgb(0%,0%,0%);fill-opacity:1;" d="M 1099.949219 328.472656 L 1027.070313 328.472656 C 1006.960938 328.472656 990.625 312.144531 990.625 292.03125 L 990.625 96.972656 L 1027.03125 96.972656 L 1027.03125 153.898438 L 1099.949219 153.898438 C 1120.070313 153.898438 1136.398438 170.226563 1136.398438 190.339844 L 1136.398438 292.03125 C 1136.398438 312.144531 1120.070313 328.472656 1099.949219 328.472656 Z M 1089.199219 190.296875 L 1037.828125 190.296875 C 1031.859375 190.296875 1027.03125 195.136719 1027.03125 201.097656 L 1027.03125 281.273438 C 1027.03125 287.234375 1031.871094 292.074219 1037.828125 292.074219 L 1089.199219 292.074219 C 1095.160156 292.074219 1100 287.234375 1100 281.273438 L 1100 201.097656 C 1100 195.136719 1095.160156 190.296875 1089.199219 190.296875 "/>
<path style=" stroke:none;fill-rule:evenodd;fill:rgb(0%,0%,0%);fill-opacity:1;" d="M 1623.660156 328.472656 L 1550.78125 328.472656 C 1530.671875 328.472656 1514.339844 312.144531 1514.339844 292.03125 L 1514.339844 190.339844 C 1514.339844 170.226563 1530.671875 153.898438 1550.78125 153.898438 L 1623.660156 153.898438 C 1643.78125 153.898438 1660.109375 170.226563 1660.109375 190.339844 L 1660.109375 221.816406 L 1550.738281 274.128906 L 1550.738281 281.273438 C 1550.738281 287.234375 1555.578125 292.074219 1561.539063 292.074219 L 1660.109375 292.074219 L 1660.109375 328.472656 Z M 1612.910156 190.296875 L 1561.539063 190.296875 C 1555.570313 190.296875 1550.738281 195.136719 1550.738281 201.097656 L 1550.738281 233.78125 L 1623.5 198.976563 C 1622.511719 194.03125 1618.140625 190.296875 1612.910156 190.296875 "/>
<path style=" stroke:none;fill-rule:evenodd;fill:rgb(0%,0%,0%);fill-opacity:1;" d="M 1347.78125 96.972656 L 1384.179688 96.972656 L 1384.179688 222.015625 L 1451.191406 153.898438 L 1500.171875 153.898438 L 1416.761719 238.683594 L 1505.089844 328.472656 L 1456.121094 328.472656 L 1384.179688 255.347656 L 1384.179688 328.472656 L 1347.78125 328.472656 L 1347.78125 96.972656 "/>
<path style=" stroke:none;fill-rule:evenodd;fill:rgb(0%,0%,0%);fill-opacity:1;" d="M 1282.179688 328.472656 L 1209.300781 328.472656 C 1189.179688 328.472656 1172.859375 312.144531 1172.859375 292.03125 L 1172.859375 190.339844 C 1172.859375 170.226563 1189.179688 153.898438 1209.300781 153.898438 L 1282.179688 153.898438 C 1302.300781 153.898438 1318.628906 170.226563 1318.628906 190.339844 L 1318.628906 221.816406 L 1209.261719 274.128906 L 1209.261719 281.273438 C 1209.261719 287.234375 1214.089844 292.074219 1220.050781 292.074219 L 1318.628906 292.074219 L 1318.628906 328.472656 Z M 1271.429688 190.296875 L 1220.050781 190.296875 C 1214.089844 190.296875 1209.261719 195.136719 1209.261719 201.097656 L 1209.261719 233.78125 L 1282.019531 198.976563 C 1281.03125 194.03125 1276.660156 190.296875 1271.429688 190.296875 "/>
<path style=" stroke:none;fill-rule:evenodd;fill:rgb(0%,0%,0%);fill-opacity:1;" d="M 1726.71875 328.472656 L 1690.320313 328.472656 L 1690.320313 190.339844 C 1690.320313 170.226563 1706.648438 153.898438 1726.761719 153.898438 L 1757.320313 153.898438 L 1757.320313 190.296875 L 1737.519531 190.296875 C 1731.550781 190.296875 1726.71875 195.136719 1726.71875 201.097656 L 1726.71875 328.472656 "/>
<path style=" stroke:none;fill-rule:evenodd;fill:rgb(0%,0%,0%);fill-opacity:1;" d="M 1987.238281 403.992188 L 1874 403.992188 C 1873.988281 403.996094 1870.28125 404.921875 1870.28125 400.269531 C 1870.28125 395.613281 1872.21875 394.265625 1872.839844 394.265625 L 1873.640625 394.265625 C 1873.640625 394.265625 1873.621094 388.355469 1880.871094 387.851563 C 1888.109375 387.347656 1895.070313 387.238281 1898.589844 382.433594 C 1902.101563 377.628906 1902.691406 368.480469 1902.691406 368.480469 L 1902.679688 368.480469 C 1902.679688 368.480469 1895.730469 366.378906 1895.730469 360.40625 C 1895.730469 354.433594 1902.679688 352.804688 1902.679688 351.679688 L 1902.679688 349.035156 C 1902.660156 349.035156 1890.070313 347.71875 1880.609375 342.191406 C 1871.140625 336.660156 1853.269531 321.886719 1844.710938 307.703125 C 1836.140625 293.523438 1836.550781 287.59375 1836.550781 287.59375 C 1836.550781 287.59375 1828.289063 285.65625 1828.289063 282.46875 C 1828.289063 279.277344 1831.148438 279.929688 1831.148438 279.929688 L 1828.289063 275.847656 L 1828.289063 232.234375 L 1834.660156 226.050781 L 1834.648438 226.042969 C 1834.429688 225.917969 1830.890625 223.851563 1834.660156 220.136719 C 1838.550781 216.296875 1862.28125 193.3125 1862.28125 193.3125 C 1862.28125 193.3125 1862.789063 192.675781 1863.570313 191.542969 C 1863.300781 191.417969 1857.859375 191.480469 1857.640625 191.269531 C 1855.75 189.449219 1854.339844 184.886719 1857.640625 181.371094 C 1859.230469 179.683594 1863.71875 176.8125 1865.371094 176.230469 C 1866.261719 173.414063 1872.839844 169.273438 1872.839844 166.261719 C 1872.828125 154.089844 1874.691406 146.144531 1874.691406 146.144531 L 1874.691406 128.476563 L 1878.46875 123.355469 L 1878.460938 123.351563 C 1878.359375 123.277344 1876.71875 122.058594 1876.71875 117.648438 C 1876.71875 113.09375 1886.199219 108.472656 1886.199219 108.472656 L 1886.199219 108.453125 C 1886.320313 108.035156 1888.289063 101.210938 1892.160156 94.09375 L 1893.089844 92.386719 C 1897.691406 84.441406 1908.109375 75.867188 1915.660156 72.695313 L 1918.171875 69.914063 L 1920.628906 69.914063 C 1920.628906 69.914063 1921.980469 68.359375 1921.980469 66.097656 C 1921.980469 66.097656 1911.921875 59.855469 1911.921875 45.230469 C 1911.921875 30.601563 1926.308594 21.375 1930.441406 21.375 L 1930.808594 21.375 C 1934.941406 21.375 1949.328125 30.601563 1949.328125 45.230469 C 1949.328125 59.855469 1939.269531 66.097656 1939.269531 66.097656 C 1939.269531 68.359375 1940.621094 69.914063 1940.621094 69.914063 L 1943.070313 69.914063 L 1945.589844 72.695313 C 1953.140625 75.867188 1963.550781 84.441406 1968.160156 92.386719 L 1969.089844 94.09375 C 1972.949219 101.210938 1974.929688 108.035156 1975.039063 108.453125 L 1975.050781 108.472656 C 1975.050781 108.472656 1984.53125 113.09375 1984.53125 117.648438 C 1984.53125 122.058594 1982.890625 123.277344 1982.789063 123.351563 L 1982.78125 123.355469 L 1986.550781 128.476563 L 1986.550781 146.144531 C 1986.550781 146.144531 1988.410156 154.089844 1988.410156 166.261719 C 1988.398438 169.273438 1994.988281 173.414063 1995.871094 176.230469 C 1997.53125 176.8125 2002.011719 179.683594 2003.601563 181.371094 C 2006.910156 184.886719 2005.5 189.449219 2003.601563 191.269531 C 2003.378906 191.480469 1997.949219 191.417969 1997.671875 191.542969 C 1998.449219 192.675781 1998.960938 193.3125 1998.960938 193.3125 C 1998.960938 193.3125 2022.691406 216.296875 2026.578125 220.136719 C 2030.351563 223.851563 2026.820313 225.917969 2026.589844 226.042969 L 2026.578125 226.050781 L 2032.960938 232.234375 L 2032.960938 275.847656 L 2030.089844 279.929688 C 2030.089844 279.929688 2032.960938 279.277344 2032.960938 282.46875 C 2032.960938 285.65625 2024.691406 287.59375 2024.691406 287.59375 C 2024.691406 287.59375 2025.101563 293.523438 2016.539063 307.703125 C 2007.980469 321.886719 1990.109375 336.660156 1980.640625 342.191406 C 1971.179688 347.71875 1958.589844 349.035156 1958.570313 349.035156 L 1958.570313 351.679688 C 1958.570313 352.804688 1965.511719 354.433594 1965.511719 360.40625 C 1965.511719 366.378906 1958.570313 368.480469 1958.570313 368.480469 L 1958.558594 368.480469 C 1958.558594 368.480469 1959.140625 377.628906 1962.660156 382.433594 C 1966.179688 387.238281 1973.140625 387.347656 1980.378906 387.851563 C 1987.621094 388.355469 1987.609375 394.265625 1987.609375 394.265625 L 1988.410156 394.265625 C 1989.03125 394.265625 1990.96875 395.613281 1990.96875 400.269531 C 1990.96875 404.921875 1987.261719 403.996094 1987.238281 403.992188 "/>
<path style=" stroke:none;fill-rule:nonzero;fill:rgb(0%,0%,0%);fill-opacity:1;" d="M 2059.171875 365.003906 L 2046.828125 349.082031 L 2046.738281 349.082031 L 2046.738281 365.003906 L 2038.859375 365.003906 L 2038.859375 330.421875 L 2046.738281 330.421875 L 2046.738281 344.492188 L 2046.878906 344.492188 L 2058.738281 330.421875 L 2068.78125 330.421875 L 2054.480469 346.347656 L 2069.621094 365.003906 L 2059.171875 365.003906 "/>
<path style=" stroke:none;fill-rule:nonzero;fill:rgb(0%,0%,0%);fill-opacity:1;" d="M 2093.300781 365.003906 L 2079.941406 342.390625 L 2079.800781 342.390625 L 2079.988281 365.003906 L 2072.199219 365.003906 L 2072.199219 330.421875 L 2081.339844 330.421875 L 2094.660156 352.988281 L 2094.800781 352.988281 L 2094.621094 330.421875 L 2102.398438 330.421875 L 2102.398438 365.003906 L 2093.300781 365.003906 "/>
<path style=" stroke:none;fill-rule:nonzero;fill:rgb(0%,0%,0%);fill-opacity:1;" d="M 2125.699219 365.003906 L 2117.691406 365.003906 L 2105.121094 330.421875 L 2114.121094 330.421875 L 2121.808594 354.941406 L 2122 354.941406 L 2129.640625 330.421875 L 2138.5 330.421875 L 2125.699219 365.003906 "/>
<path style=" stroke:none;fill-rule:nonzero;fill:rgb(0%,0%,0%);fill-opacity:1;" d="M 2167.109375 354.941406 C 2167.109375 356.832031 2166.75 358.417969 2166.03125 359.707031 C 2165.308594 360.992188 2164.359375 362.027344 2163.171875 362.808594 C 2161.980469 363.589844 2160.628906 364.152344 2159.109375 364.492188 C 2157.601563 364.835938 2156.039063 365.003906 2154.449219 365.003906 L 2141.21875 365.003906 L 2141.21875 330.421875 L 2154.449219 330.421875 C 2155.730469 330.421875 2157.039063 330.5625 2158.390625 330.839844 C 2159.730469 331.113281 2160.949219 331.589844 2162.039063 332.253906 C 2163.140625 332.921875 2164.03125 333.828125 2164.71875 334.964844 C 2165.398438 336.105469 2165.75 337.554688 2165.75 339.3125 C 2165.75 341.234375 2165.25 342.820313 2164.25 344.074219 C 2163.25 345.328125 2161.929688 346.234375 2160.308594 346.785156 L 2160.308594 346.882813 C 2161.25 347.046875 2162.128906 347.347656 2162.960938 347.789063 C 2163.789063 348.226563 2164.511719 348.789063 2165.121094 349.472656 C 2165.71875 350.15625 2166.210938 350.953125 2166.570313 351.867188 C 2166.929688 352.777344 2167.109375 353.804688 2167.109375 354.941406 Z M 2158.011719 340.4375 C 2158.011719 339.265625 2157.578125 338.410156 2156.71875 337.871094 C 2155.859375 337.335938 2154.589844 337.066406 2152.898438 337.066406 L 2148.960938 337.066406 L 2148.960938 344.199219 L 2153.28125 344.199219 C 2154.78125 344.199219 2155.941406 343.878906 2156.769531 343.246094 C 2157.601563 342.609375 2158.011719 341.671875 2158.011719 340.4375 Z M 2159.089844 354.160156 C 2159.089844 352.730469 2158.570313 351.734375 2157.539063 351.183594 C 2156.511719 350.628906 2155.140625 350.351563 2153.421875 350.351563 L 2148.960938 350.351563 L 2148.960938 358.265625 L 2153.460938 358.265625 C 2154.089844 358.265625 2154.738281 358.207031 2155.410156 358.09375 C 2156.078125 357.980469 2156.691406 357.777344 2157.238281 357.484375 C 2157.78125 357.191406 2158.230469 356.773438 2158.570313 356.238281 C 2158.921875 355.699219 2159.089844 355.007813 2159.089844 354.160156 "/>
</g>
</svg>
