<?xml version="1.0" encoding="UTF-8"?>
<svg xmlns="http://www.w3.org/2000/svg" xmlns:xlink="http://www.w3.org/1999/xlink" width="252.37pt" height="315.02pt" viewBox="0 0 252.37 315.02" version="1.1">
<defs>
<clipPath id="clip1">
  <path d="M 0 52 L 252.371094 52 L 252.371094 315.019531 L 0 315.019531 Z M 0 52 "/>
</clipPath>
</defs>
<g id="surface1">
<g clip-path="url(#clip1)" clip-rule="nonzero">
<path style=" stroke:none;fill-rule:nonzero;fill:rgb(0%,21.568298%,39.215088%);fill-opacity:1;" d="M 126.1875 52.246094 C 195.683594 52.246094 252.375 108.9375 252.375 178.433594 C 252.375 245.285156 199.882813 300.257813 134.027344 304.339844 L 126.1875 315.019531 L 118.34375 304.339844 C 52.492188 300.257813 0 245.285156 0 178.433594 C 0 108.9375 56.691406 52.246094 126.1875 52.246094 "/>
</g>
<path style=" stroke:none;fill-rule:nonzero;fill:rgb(0%,0%,0%);fill-opacity:1;" d="M 74.175781 86.132813 C 69.253906 83.25 65.132813 79.132813 62.253906 74.25 C 61.574219 73.050781 61.292969 71.890625 61.292969 70.527344 C 61.292969 67.648438 62.933594 65.488281 65.492188 64.328125 C 72.9375 60.925781 80.65625 58.207031 88.539063 56.125 C 113.222656 49.5625 139.148438 49.5625 163.835938 56.125 C 171.714844 58.207031 179.4375 60.925781 186.878906 64.328125 C 189.441406 65.488281 191.078125 67.648438 191.078125 70.527344 C 191.078125 71.890625 190.800781 73.050781 190.121094 74.25 C 187.238281 79.132813 183.117188 83.25 178.195313 86.132813 C 173.238281 89.09375 167.59375 90.652344 161.875 90.851563 L 145.230469 68.847656 C 138.910156 68.046875 132.546875 67.648438 126.1875 67.648438 C 119.824219 67.648438 113.464844 68.046875 107.144531 68.847656 L 90.5 90.851563 C 84.777344 90.652344 79.136719 89.09375 74.175781 86.132813 "/>
<path style=" stroke:none;fill-rule:nonzero;fill:rgb(0%,21.568298%,39.215088%);fill-opacity:1;" d="M 131.90625 2.433594 C 133.386719 3.914063 134.308594 5.996094 134.308594 8.234375 C 134.308594 9.316406 134.109375 10.394531 133.667969 11.433594 C 135.910156 11.433594 137.910156 12.355469 139.390625 13.835938 C 140.871094 15.316406 141.789063 17.398438 141.789063 19.636719 C 141.789063 24.199219 138.109375 27.878906 133.550781 27.878906 C 132.1875 27.878906 130.828125 27.519531 129.628906 26.839844 C 129.828125 30.960938 131.550781 34.640625 134.269531 37.359375 C 139.871094 43.003906 148.832031 43.484375 155.03125 38.601563 C 157.636719 36.601563 159.554688 33.761719 160.472656 30.558594 C 159.234375 30.800781 157.914063 30.882813 156.714844 30.601563 C 154.511719 30.082031 152.714844 28.71875 151.59375 26.917969 C 149.152344 23.078125 150.351563 17.878906 154.273438 15.515625 C 155.953125 14.515625 158.035156 14.117188 160.113281 14.476563 C 159.554688 11.234375 161.035156 7.875 163.875 6.113281 C 165.675781 4.996094 167.875 4.554688 170.078125 5.074219 C 172.316406 5.554688 174.117188 6.914063 175.238281 8.714844 C 176.996094 11.554688 176.878906 15.195313 174.917969 17.917969 C 176.996094 18.4375 178.757813 19.71875 179.878906 21.398438 C 181.039063 23.15625 181.519531 25.398438 181 27.757813 C 180.476563 29.960938 179.117188 31.761719 177.316406 32.882813 C 174.398438 34.722656 170.597656 34.480469 167.914063 32.398438 C 167.035156 36.523438 167.875 40.640625 169.957031 44.003906 C 172.117188 47.402344 175.515625 49.964844 179.761719 50.882813 C 184.4375 51.925781 189.960938 51.765625 193.800781 48.445313 C 190.960938 47.683594 188.601563 45.441406 187.882813 42.601563 C 186.722656 38 189.921875 32.761719 195.199219 32.28125 C 198.761719 32.039063 200.601563 33.679688 202.882813 35.722656 C 204.765625 32.640625 207.363281 25.640625 211.964844 25.839844 C 214.445313 26.039063 217.445313 27.878906 220.046875 29.679688 C 221.367188 30.640625 222.6875 31.640625 224.046875 32.558594 L 212.566406 44.484375 C 213.523438 46.925781 212.605469 50.042969 210.765625 51.882813 C 208.804688 53.84375 205.203125 54.683594 202.601563 53.566406 C 199.28125 56.324219 195.320313 58.285156 191.039063 59.285156 C 186.839844 60.285156 182.359375 60.367188 177.878906 59.324219 C 174.15625 58.484375 170.757813 56.925781 167.835938 54.886719 C 164.835938 52.765625 162.273438 50.125 160.273438 47.125 C 157.351563 48.722656 154.113281 49.804688 150.753906 50.324219 C 144.429688 51.242188 137.867188 50.042969 132.308594 46.882813 C 129.90625 45.523438 128.148438 44.003906 126.1875 42.164063 C 124.226563 44.003906 122.46875 45.523438 120.066406 46.882813 C 114.503906 50.042969 107.945313 51.242188 101.621094 50.324219 C 98.261719 49.804688 95.019531 48.722656 92.097656 47.125 C 90.097656 50.125 87.539063 52.765625 84.539063 54.886719 C 81.617188 56.925781 78.21875 58.484375 74.496094 59.324219 C 70.015625 60.367188 65.535156 60.285156 61.332031 59.285156 C 57.050781 58.285156 53.09375 56.324219 49.769531 53.566406 C 47.171875 54.683594 43.570313 53.84375 41.609375 51.882813 C 39.769531 50.042969 38.847656 46.925781 39.808594 44.484375 L 28.324219 32.558594 C 29.6875 31.640625 31.007813 30.640625 32.328125 29.679688 C 34.925781 27.878906 37.929688 26.039063 40.410156 25.839844 C 45.011719 25.640625 47.609375 32.640625 49.492188 35.722656 C 51.769531 33.679688 53.613281 32.039063 57.171875 32.28125 C 62.453125 32.761719 65.65625 38 64.492188 42.601563 C 63.773438 45.441406 61.414063 47.683594 58.574219 48.445313 C 62.414063 51.765625 67.933594 51.925781 72.617188 50.882813 C 76.855469 49.964844 80.257813 47.402344 82.417969 44.003906 C 84.496094 40.640625 85.339844 36.523438 84.457031 32.398438 C 81.777344 34.480469 77.976563 34.722656 75.054688 32.882813 C 73.257813 31.761719 71.894531 29.960938 71.375 27.757813 C 70.855469 25.398438 71.335938 23.15625 72.496094 21.398438 C 73.617188 19.71875 75.375 18.4375 77.457031 17.917969 C 75.496094 15.195313 75.375 11.554688 77.136719 8.714844 C 78.257813 6.914063 80.054688 5.554688 82.296875 5.074219 C 84.496094 4.554688 86.699219 4.996094 88.5 6.113281 C 91.339844 7.875 92.820313 11.234375 92.261719 14.476563 C 94.339844 14.117188 96.421875 14.515625 98.101563 15.515625 C 102.023438 17.878906 103.222656 23.078125 100.78125 26.917969 C 99.660156 28.71875 97.863281 30.082031 95.660156 30.601563 C 94.460938 30.882813 93.140625 30.800781 91.898438 30.558594 C 92.820313 33.761719 94.742188 36.601563 97.339844 38.601563 C 103.542969 43.484375 112.503906 43.003906 118.105469 37.359375 C 120.824219 34.640625 122.546875 30.960938 122.746094 26.839844 C 121.546875 27.519531 120.1875 27.878906 118.824219 27.878906 C 114.265625 27.878906 110.585938 24.199219 110.585938 19.636719 C 110.585938 17.398438 111.503906 15.316406 112.984375 13.835938 C 114.464844 12.355469 116.464844 11.433594 118.707031 11.433594 C 118.265625 10.394531 118.066406 9.316406 118.066406 8.234375 C 118.066406 5.996094 118.984375 3.914063 120.464844 2.433594 C 123.628906 -0.808594 128.746094 -0.808594 131.90625 2.433594 "/>
<path style=" stroke:none;fill-rule:nonzero;fill:rgb(98.822021%,87.841797%,32.156372%);fill-opacity:1;" d="M 126.1875 41.042969 C 128.105469 43.121094 130.226563 44.84375 132.667969 46.242188 C 138.070313 49.324219 144.511719 50.484375 150.671875 49.5625 C 154.191406 49.042969 157.554688 47.84375 160.554688 46.082031 C 162.515625 48.925781 164.515625 51.765625 168.234375 54.246094 C 171.117188 56.285156 174.398438 57.765625 178.039063 58.605469 C 182.398438 59.605469 186.757813 59.527344 190.839844 58.566406 C 195.199219 57.527344 199.082031 55.523438 202.484375 52.644531 C 204.921875 53.886719 208.324219 53.246094 210.246094 51.324219 C 212.046875 49.5625 212.726563 46.644531 211.683594 44.28125 L 222.886719 32.679688 C 221.964844 32.039063 220.804688 31.160156 219.566406 30.28125 C 217.085938 28.558594 214.246094 26.757813 211.925781 26.597656 C 207.804688 26.359375 204.964844 33.679688 203.082031 36.960938 C 200.683594 34.722656 198.882813 32.71875 195.28125 33.039063 C 190.441406 33.480469 187.519531 38.28125 188.679688 42.523438 C 189.558594 45.804688 192.160156 47.402344 195.363281 48.003906 C 191 52.324219 185.359375 52.886719 179.597656 51.644531 C 175.15625 50.683594 171.558594 47.964844 169.316406 44.402344 C 166.875 40.480469 166.074219 35.441406 167.515625 31.039063 C 170.195313 33.480469 173.675781 34.242188 176.917969 32.238281 C 178.558594 31.199219 179.796875 29.601563 180.238281 27.558594 C 180.757813 25.4375 180.320313 23.398438 179.238281 21.796875 C 177.835938 19.757813 175.917969 18.835938 173.558594 18.398438 C 175.835938 15.675781 176.558594 12.277344 174.597656 9.113281 C 173.558594 7.476563 171.917969 6.273438 169.914063 5.792969 C 167.914063 5.3125 165.875 5.714844 164.273438 6.753906 C 161.035156 8.753906 160.273438 12.074219 161.113281 15.476563 C 158.832031 14.917969 156.753906 14.917969 154.671875 16.195313 C 151.113281 18.316406 150.03125 23.039063 152.234375 26.519531 C 153.234375 28.160156 154.871094 29.398438 156.875 29.839844 C 158.433594 30.199219 159.992188 29.921875 161.515625 29.480469 C 160.554688 33.398438 158.753906 36.679688 155.511719 39.203125 C 148.992188 44.324219 139.589844 43.804688 133.707031 37.882813 C 130.308594 34.441406 128.867188 30.238281 128.867188 25.480469 C 130.347656 26.4375 131.746094 27.117188 133.546875 27.117188 C 137.667969 27.117188 141.03125 23.757813 141.03125 19.636719 C 141.03125 17.597656 140.191406 15.71875 138.871094 14.355469 C 136.910156 12.4375 134.867188 12.15625 132.46875 12.195313 C 133.109375 10.914063 133.546875 9.714844 133.546875 8.234375 C 133.546875 6.195313 132.707031 4.3125 131.386719 2.953125 C 128.507813 0.0351563 123.867188 0.0351563 120.984375 2.953125 C 119.664063 4.3125 118.824219 6.195313 118.824219 8.234375 C 118.824219 9.714844 119.265625 10.914063 119.90625 12.195313 C 117.503906 12.15625 115.464844 12.4375 113.503906 14.355469 C 112.183594 15.71875 111.34375 17.597656 111.34375 19.636719 C 111.34375 23.757813 114.703125 27.117188 118.824219 27.117188 C 120.625 27.117188 122.027344 26.4375 123.507813 25.480469 C 123.507813 30.238281 122.066406 34.441406 118.664063 37.882813 C 112.785156 43.804688 103.382813 44.324219 96.859375 39.203125 C 93.621094 36.679688 91.820313 33.398438 90.859375 29.480469 C 92.378906 29.921875 93.941406 30.199219 95.5 29.839844 C 97.5 29.398438 99.140625 28.160156 100.140625 26.519531 C 102.34375 23.039063 101.261719 18.316406 97.703125 16.195313 C 95.621094 14.917969 93.539063 14.917969 91.261719 15.476563 C 92.101563 12.074219 91.339844 8.753906 88.097656 6.753906 C 86.5 5.714844 84.457031 5.3125 82.457031 5.792969 C 80.457031 6.273438 78.816406 7.476563 77.777344 9.113281 C 75.816406 12.277344 76.535156 15.675781 78.816406 18.398438 C 76.457031 18.835938 74.535156 19.757813 73.136719 21.796875 C 72.054688 23.398438 71.617188 25.4375 72.136719 27.558594 C 72.578125 29.601563 73.816406 31.199219 75.457031 32.238281 C 78.695313 34.242188 82.179688 33.480469 84.859375 31.039063 C 86.296875 35.441406 85.5 40.480469 83.058594 44.402344 C 80.816406 47.964844 77.21875 50.683594 72.777344 51.644531 C 67.015625 52.886719 61.375 52.324219 57.011719 48.003906 C 60.214844 47.402344 62.8125 45.804688 63.695313 42.523438 C 64.855469 38.28125 61.933594 33.480469 57.09375 33.039063 C 53.492188 32.71875 51.691406 34.722656 49.289063 36.960938 C 47.410156 33.679688 44.570313 26.359375 40.449219 26.597656 C 38.128906 26.757813 35.289063 28.558594 32.808594 30.28125 C 31.566406 31.160156 30.40625 32.039063 29.484375 32.679688 L 40.6875 44.28125 C 39.648438 46.644531 40.328125 49.5625 42.128906 51.324219 C 44.046875 53.246094 47.449219 53.886719 49.890625 52.644531 C 53.289063 55.523438 57.171875 57.527344 61.535156 58.566406 C 65.613281 59.527344 69.976563 59.605469 74.335938 58.605469 C 77.976563 57.765625 81.257813 56.285156 84.136719 54.246094 C 87.859375 51.765625 89.859375 48.925781 91.820313 46.082031 C 94.820313 47.84375 98.179688 49.042969 101.703125 49.5625 C 107.863281 50.484375 114.304688 49.324219 119.707031 46.242188 C 122.144531 44.84375 124.265625 43.121094 126.1875 41.042969 "/>
<path style=" stroke:none;fill-rule:nonzero;fill:rgb(98.822021%,87.841797%,32.156372%);fill-opacity:1;" d="M 144.789063 69.566406 L 226.566406 177.589844 L 126.1875 313.742188 L 25.804688 177.589844 L 107.585938 69.566406 C 113.703125 68.808594 119.945313 68.410156 126.1875 68.410156 C 132.429688 68.410156 138.671875 68.808594 144.789063 69.566406 "/>
<path style=" stroke:none;fill-rule:nonzero;fill:rgb(98.822021%,87.841797%,32.156372%);fill-opacity:1;" d="M 88.699219 56.847656 C 80.855469 58.925781 73.214844 61.648438 65.8125 65.007813 C 63.492188 66.046875 62.054688 67.929688 62.054688 70.527344 C 62.054688 71.769531 62.292969 72.769531 62.933594 73.890625 C 64.414063 76.371094 66.214844 78.648438 68.253906 80.691406 C 75.375 76.488281 83.058594 73.210938 91.300781 71.050781 C 112.425781 65.527344 139.949219 65.527344 161.074219 71.050781 C 168.636719 73.050781 175.757813 75.96875 182.398438 79.691406 L 173.996094 81.851563 L 168.074219 82.332031 L 169.515625 78.011719 L 167.796875 75.769531 L 165.355469 78.648438 L 163.632813 78.890625 L 162.273438 74.847656 L 160.59375 78.328125 L 156.832031 80.210938 L 163.394531 88.933594 C 167.753906 88.933594 173.558594 88.054688 177.796875 85.492188 C 180.117188 84.132813 182.160156 82.53125 184.117188 80.691406 C 186.160156 78.648438 187.960938 76.371094 189.441406 73.890625 C 190.082031 72.769531 190.320313 71.769531 190.320313 70.527344 C 190.320313 67.929688 188.878906 66.046875 186.558594 65.007813 C 179.15625 61.648438 171.515625 58.925781 163.675781 56.847656 C 139.109375 50.324219 113.265625 50.324219 88.699219 56.847656 "/>
<path style=" stroke:none;fill-rule:nonzero;fill:rgb(100%,0%,0%);fill-opacity:1;" d="M 182.921875 223.082031 L 205.644531 194.953125 L 205.644531 159.105469 L 182.921875 129.140625 Z M 137.507813 279.292969 L 160.234375 251.167969 L 160.234375 99.132813 L 137.507813 69.128906 Z M 69.457031 129.140625 L 46.730469 159.105469 L 46.730469 194.953125 L 69.457031 223.082031 Z M 114.863281 69.128906 L 92.140625 99.132813 L 92.140625 251.167969 L 114.863281 279.292969 "/>
<path style=" stroke:none;fill-rule:nonzero;fill:rgb(0%,0%,0%);fill-opacity:1;" d="M 89.699219 149.546875 C 86.058594 147.265625 83.019531 146.386719 78.9375 146.386719 C 64.054688 146.386719 53.171875 159.347656 53.171875 177.152344 C 53.171875 193.953125 64.253906 207.195313 78.257813 207.195313 C 82.378906 207.195313 85.539063 206.316406 89.699219 204.035156 L 89.699219 186.871094 C 87.058594 189.394531 84.417969 190.675781 81.496094 190.675781 C 74.695313 190.675781 70.136719 184.992188 70.136719 176.671875 C 70.136719 168.828125 74.894531 163.027344 81.257813 163.027344 C 84.21875 163.027344 86.539063 164.027344 89.699219 166.667969 "/>
<path style=" stroke:none;fill-rule:nonzero;fill:rgb(0%,0%,0%);fill-opacity:1;" d="M 197.003906 159.90625 L 197.003906 147.144531 L 162.753906 147.144531 L 162.753906 207.039063 L 178.277344 207.039063 L 178.277344 182.351563 L 195.28125 182.351563 L 195.28125 169.589844 L 178.277344 169.589844 L 178.277344 159.90625 "/>
<path style=" stroke:none;fill-rule:nonzero;fill:rgb(100%,0%,0%);fill-opacity:1;" d="M 126.1875 22.800781 C 128.867188 22.800781 131.027344 20.597656 131.027344 17.917969 C 131.027344 15.234375 128.867188 13.078125 126.1875 13.078125 C 123.546875 13.078125 121.347656 15.234375 121.347656 17.917969 C 121.347656 20.597656 123.546875 22.800781 126.1875 22.800781 "/>
<path style=" stroke:none;fill-rule:nonzero;fill:rgb(100%,0%,0%);fill-opacity:1;" d="M 166.433594 27.519531 C 169.117188 27.519531 171.277344 25.359375 171.277344 22.679688 C 171.277344 19.996094 169.117188 17.796875 166.433594 17.796875 C 163.753906 17.796875 161.554688 19.996094 161.554688 22.679688 C 161.554688 25.359375 163.753906 27.519531 166.433594 27.519531 "/>
<path style=" stroke:none;fill-rule:nonzero;fill:rgb(100%,0%,0%);fill-opacity:1;" d="M 206.925781 53.285156 C 209.605469 53.285156 211.804688 51.085938 211.804688 48.402344 C 211.804688 45.722656 209.605469 43.523438 206.925781 43.523438 C 204.242188 43.523438 202.082031 45.722656 202.082031 48.402344 C 202.082031 51.085938 204.242188 53.285156 206.925781 53.285156 "/>
<path style=" stroke:none;fill-rule:nonzero;fill:rgb(100%,0%,0%);fill-opacity:1;" d="M 85.976563 27.519531 C 88.660156 27.519531 90.820313 25.359375 90.820313 22.679688 C 90.820313 19.996094 88.660156 17.796875 85.976563 17.796875 C 83.296875 17.796875 81.097656 19.996094 81.097656 22.679688 C 81.097656 25.359375 83.296875 27.519531 85.976563 27.519531 "/>
<path style=" stroke:none;fill-rule:nonzero;fill:rgb(100%,0%,0%);fill-opacity:1;" d="M 45.449219 53.285156 C 48.132813 53.285156 50.289063 51.085938 50.289063 48.402344 C 50.289063 45.722656 48.132813 43.523438 45.449219 43.523438 C 42.769531 43.523438 40.570313 45.722656 40.570313 48.402344 C 40.570313 51.085938 42.769531 53.285156 45.449219 53.285156 "/>
<path style=" stroke:none;fill-rule:nonzero;fill:rgb(100%,0%,0%);fill-opacity:1;" d="M 114.664063 59.328125 L 126.1875 54.445313 L 137.710938 59.328125 L 126.1875 64.207031 Z M 114.664063 59.328125 "/>
<path style=" stroke:none;fill-rule:nonzero;fill:rgb(0%,21.568298%,39.215088%);fill-opacity:1;" d="M 66.015625 72.570313 L 75.296875 64.167969 L 87.777344 65.046875 L 78.496094 73.410156 Z M 66.015625 72.570313 "/>
<path style=" stroke:none;fill-rule:nonzero;fill:rgb(0%,21.568298%,39.215088%);fill-opacity:1;" d="M 186.359375 72.570313 L 177.078125 64.167969 L 164.59375 65.046875 L 173.878906 73.410156 Z M 186.359375 72.570313 "/>
<path style=" stroke:none;fill-rule:nonzero;fill:rgb(98.822021%,87.841797%,32.156372%);fill-opacity:1;" d="M 91.058594 86.171875 L 101.820313 71.929688 L 84.417969 76.8125 L 87.738281 82.089844 L 87.457031 86.371094 "/>
<path style=" stroke:none;fill-rule:nonzero;fill:rgb(0%,21.568298%,39.215088%);fill-opacity:1;" d="M 110.902344 298.257813 C 51.53125 290.695313 5.402344 239.765625 5.402344 178.433594 C 5.402344 135.023438 28.488281 96.8125 63.054688 75.527344 C 65.894531 79.851563 69.695313 83.492188 74.175781 86.132813 C 78.335938 88.613281 82.9375 90.09375 87.660156 90.652344 L 80.339844 100.335938 L 49.769531 100.335938 L 49.769531 122.21875 L 63.773438 122.21875 L 21.886719 177.550781 "/>
<path style=" stroke:none;fill-rule:nonzero;fill:rgb(0%,21.568298%,39.215088%);fill-opacity:1;" d="M 189.320313 75.53125 C 223.886719 96.816406 246.972656 135.023438 246.972656 178.433594 C 246.972656 239.765625 200.84375 290.695313 141.46875 298.257813 L 230.488281 177.550781 L 188.601563 122.21875 L 202.601563 122.21875 L 202.601563 100.335938 L 172.035156 100.335938 L 164.714844 90.652344 C 169.4375 90.09375 174.035156 88.613281 178.199219 86.132813 C 182.679688 83.492188 186.480469 79.851563 189.320313 75.53125 "/>
<path style=" stroke:none;fill-rule:nonzero;fill:rgb(100%,100%,100%);fill-opacity:1;" d="M 90.5 90.851563 L 81.496094 102.734375 L 52.171875 102.734375 L 52.171875 119.820313 L 68.613281 119.820313 L 24.84375 177.550781 L 117.703125 303.5 C 52.609375 299.097656 0.839844 244.605469 0.839844 178.433594 C 0.839844 133.101563 25.085938 93.292969 61.332031 71.25 C 61.414063 72.328125 61.695313 73.25 62.253906 74.25 C 62.332031 74.328125 63.054688 75.53125 63.054688 75.53125 C 28.484375 96.8125 5.402344 135.023438 5.402344 178.433594 C 5.402344 239.765625 51.53125 290.695313 110.902344 298.257813 L 21.886719 177.550781 L 63.773438 122.21875 L 49.769531 122.21875 L 49.769531 100.335938 L 80.335938 100.335938 L 87.660156 90.652344 C 88.621094 90.734375 89.578125 90.8125 90.5 90.851563 "/>
<path style=" stroke:none;fill-rule:nonzero;fill:rgb(100%,100%,100%);fill-opacity:1;" d="M 161.875 90.851563 L 170.878906 102.734375 L 200.203125 102.734375 L 200.203125 119.820313 L 183.757813 119.820313 L 227.527344 177.550781 L 134.671875 303.5 C 199.765625 299.097656 251.535156 244.605469 251.535156 178.433594 C 251.535156 133.101563 227.289063 93.292969 191.039063 71.25 C 190.960938 72.328125 190.683594 73.25 190.121094 74.25 C 190.039063 74.328125 189.320313 75.53125 189.320313 75.53125 C 223.890625 96.8125 246.972656 135.023438 246.972656 178.433594 C 246.972656 239.765625 200.84375 290.695313 141.472656 298.257813 L 230.488281 177.550781 L 188.601563 122.21875 L 202.605469 122.21875 L 202.605469 100.335938 L 172.035156 100.335938 L 164.714844 90.652344 C 163.753906 90.734375 162.796875 90.8125 161.875 90.851563 "/>
<path style=" stroke:none;fill-rule:nonzero;fill:rgb(0%,0%,0%);fill-opacity:1;" d="M 52.171875 102.734375 L 52.171875 119.816406 L 86.058594 119.777344 L 126.1875 248.167969 L 166.316406 119.777344 L 200.203125 119.816406 L 200.203125 102.734375 L 151.632813 102.734375 L 126.1875 184.835938 L 100.742188 102.734375 "/>
</g>
</svg>
